<svg xmlns="http://www.w3.org/2000/svg" viewBox="0 0 512 512">
  <defs>
    <linearGradient id="grad" x1="0%" y1="0%" x2="100%" y2="100%">
      <stop offset="0%" style="stop-color:#22c55e"/>
      <stop offset="100%" style="stop-color:#60a5fa"/>
    </linearGradient>
  </defs>
  <rect width="512" height="512" rx="90" fill="#020617"/>
  <rect x="40" y="40" width="432" height="432" rx="70" fill="url(#grad)"/>
  <rect x="60" y="60" width="392" height="392" rx="50" fill="#020617"/>
  
  <!-- Image icon -->
  <rect x="120" y="140" width="200" height="160" rx="16" fill="#1e293b" stroke="#22c55e" stroke-width="8"/>
  <circle cx="170" cy="190" r="25" fill="#22c55e"/>
  <path d="M120 260 L180 200 L240 260 L280 220 L320 280 L320 284 C320 292.837 312.837 300 304 300 L136 300 C127.163 300 120 292.837 120 284 Z" fill="#22c55e" opacity="0.8"/>
  
  <!-- Arrow -->
  <path d="M340 220 L420 220" stroke="#60a5fa" stroke-width="12" stroke-linecap="round"/>
  <path d="M390 190 L420 220 L390 250" stroke="#60a5fa" stroke-width="12" stroke-linecap="round" stroke-linejoin="round" fill="none"/>
  
  <!-- Output format badge -->
  <rect x="280" y="320" width="140" height="60" rx="12" fill="#22c55e"/>
  <text x="350" y="362" font-family="Arial, sans-serif" font-size="32" font-weight="bold" fill="#020617" text-anchor="middle">JPG</text>
  
  <!-- IF letters -->
  <text x="256" y="450" font-family="Arial, sans-serif" font-size="48" font-weight="bold" fill="#f8fafc" text-anchor="middle">ImageForge</text>
</svg>
